<svg xmlns="http://www.w3.org/2000/svg" viewBox="0 0 100 100" shape-rendering="crispEdges">
  <!-- 背景 -->
  <rect width="100" height="100" fill="#1a1a2e"/>
  
  <!-- 骷髅兵 - 不死生物 -->
  <!-- 头骨 -->
  <rect x="38" y="20" width="24" height="22" fill="#f5f5dc"/>
  <rect x="40" y="22" width="20" height="18" fill="#fff"/>
  
  <!-- 眼窝 -->
  <rect x="43" y="28" width="5" height="5" fill="#000"/>
  <rect x="52" y="28" width="5" height="5" fill="#000"/>
  <rect x="44" y="29" width="2" height="2" fill="#ff0000"/>
  <rect x="53" y="29" width="2" height="2" fill="#ff0000"/>
  
  <!-- 鼻子 -->
  <rect x="48" y="34" width="4" height="3" fill="#000"/>
  
  <!-- 牙齿 -->
  <rect x="42" y="38" width="16" height="3" fill="#ddd"/>
  <rect x="44" y="38" width="2" height="3" fill="#fff"/>
  <rect x="48" y="38" width="2" height="3" fill="#fff"/>
  <rect x="52" y="38" width="2" height="3" fill="#fff"/>
  
  <!-- 脊椎 -->
  <rect x="48" y="42" width="4" height="20" fill="#ddd"/>
  
  <!-- 肋骨 -->
  <rect x="38" y="48" width="24" height="3" fill="#ddd"/>
  <rect x="36" y="54" width="28" height="3" fill="#ddd"/>
  <rect x="38" y="60" width="24" height="3" fill="#ddd"/>
  
  <!-- 手臂骨骼 -->
  <rect x="22" y="50" width="16" height="4" fill="#ddd"/>
  <rect x="62" y="50" width="16" height="4" fill="#ddd"/>
  <rect x="18" y="52" width="4" height="12" fill="#ddd"/>
  <rect x="78" y="52" width="4" height="12" fill="#ddd"/>
  
  <!-- 武器 - 生锈剑 -->
  <rect x="15" y="40" width="4" height="30" fill="#8b4513"/>
  <rect x="12" y="68" width="10" height="4" fill="#4a4a4a"/>
  
  <!-- 腿部骨骼 -->
  <rect x="40" y="72" width="6" height="20" fill="#ddd"/>
  <rect x="54" y="72" width="6" height="20" fill="#ddd"/>
</svg>