<svg xmlns="http://www.w3.org/2000/svg" viewBox="0 0 100 100" shape-rendering="crispEdges">
  <!-- 背景 -->
  <rect width="100" height="100" fill="#1a1a2e"/>
  
  <!-- 游侠 - 自然守护者 -->
  <!-- 绿色兜帽 -->
  <rect x="38" y="10" width="24" height="10" fill="#228b22"/>
  <rect x="36" y="14" width="6" height="8" fill="#228b22"/>
  <rect x="58" y="14" width="6" height="8" fill="#228b22"/>
  
  <!-- 头发 -->
  <rect x="40" y="18" width="20" height="6" fill="#8b4513"/>
  
  <!-- 脸部 -->
  <rect x="42" y="22" width="16" height="12" fill="#fdbf60"/>
  <rect x="45" y="26" width="3" height="3" fill="#228b22"/>
  <rect x="52" y="26" width="3" height="3" fill="#228b22"/>
  <rect x="47" y="30" width="6" height="2" fill="#8b4513"/>
  
  <!-- 身体/皮甲 -->
  <rect x="36" y="34" width="28" height="22" fill="#556b2f"/>
  <rect x="40" y="38" width="20" height="14" fill="#6b8e23"/>
  
  <!-- 披风 -->
  <rect x="30" y="36" width="8" height="20" fill="#228b22"/>
  <rect x="62" y="36" width="8" height="20" fill="#228b22"/>
  
  <!-- 弓箭 -->
  <rect x="16" y="30" width="3" height="32" fill="#8b4513"/>
  <rect x="13" y="34" width="9" height="3" fill="#8b4513"/>
  <rect x="13" y="52" width="9" height="3" fill="#8b4513"/>
  <rect x="14" y="38" width="2" height="14" fill="#c0c0c0"/>
  
  <!-- 箭袋 -->
  <rect x="68" y="36" width="8" height="18" fill="#8b4513"/>
  <rect x="70" y="32" width="2" height="6" fill="#d2691e"/>
  <rect x="73" y="34" width="2" height="4" fill="#d2691e"/>
  
  <!-- 动物伙伴（小狼） -->
  <rect x="78" y="56" width="14" height="10" fill="#696969"/>
  <rect x="80" y="52" width="6" height="6" fill="#696969"/>
  <rect x="82" y="54" width="2" height="2" fill="#ff0000"/>
  
  <!-- 腿部 -->
  <rect x="40" y="56" width="8" height="24" fill="#556b2f"/>
  <rect x="52" y="56" width="8" height="24" fill="#556b2f"/>
  
  <!-- 靴子 -->
  <rect x="38" y="76" width="12" height="10" fill="#8b4513"/>
  <rect x="50" y="76" width="12" height="10" fill="#8b4513"/>
  
  <!-- 树叶装饰 -->
  <rect x="12" y="22" width="4" height="4" fill="#32cd32"/>
  <rect x="84" y="28" width="3" height="3" fill="#32cd32"/>
  <rect x="10" y="70" width="3" height="3" fill="#228b22"/>
</svg>