<svg xmlns="http://www.w3.org/2000/svg" viewBox="0 0 100 100" shape-rendering="crispEdges">
  <!-- 背景 -->
  <rect width="100" height="100" fill="#1a1a2e"/>
  
  <!-- 盗贼 - 暗影刺客 -->
  <!-- 兜帽 -->
  <path d="M35 18 Q50 8 65 18 L62 28 L38 28 Z" fill="#1a1a2e"/>
  <rect x="35" y="24" width="30" height="6" fill="#252542"/>
  
  <!-- 脸部 -->
  <rect x="40" y="26" width="20" height="14" fill="#fdbf60"/>
  <rect x="44" y="30" width="3" height="3" fill="#ffd700"/>
  <rect x="53" y="30" width="3" height="3" fill="#ffd700"/>
  <rect x="48" y="36" width="4" height="2" fill="#8b4513"/>
  
  <!-- 面罩 -->
  <rect x="40" y="36" width="20" height="6" fill="#2f2f2f"/>
  
  <!-- 皮甲 -->
  <rect x="34" y="42" width="32" height="24" fill="#2f2f2f"/>
  <rect x="38" y="46" width="24" height="16" fill="#3c3c3c"/>
  
  <!-- 皮甲细节 -->
  <rect x="42" y="50" width="6" height="4" fill="#1a1a1a"/>
  <rect x="52" y="50" width="6" height="4" fill="#1a1a1a"/>
  <rect x="46" y="58" width="8" height="2" fill="#4a4a4a"/>
  
  <!-- 匕首 - 右手 -->
  <rect x="72" y="40" width="4" height="18" fill="#c0c0c0"/>
  <rect x="70" y="56" width="8" height="4" fill="#4a4a4a"/>
  <rect x="73" y="36" width="2" height="6" fill="#8b0000"/>
  
  <!-- 匕首 - 左手 -->
  <rect x="22" y="44" width="4" height="16" fill="#c0c0c0"/>
  <rect x="20" y="58" width="8" height="4" fill="#4a4a4a"/>
  <rect x="23" y="40" width="2" height="6" fill="#8b0000"/>
  
  <!-- 腿部 -->
  <rect x="38" y="66" width="10" height="22" fill="#1a1a2e"/>
  <rect x="52" y="66" width="10" height="22" fill="#1a1a2e"/>
  
  <!-- 靴子 -->
  <rect x="36" y="84" width="14" height="10" fill="#0f0f0f"/>
  <rect x="50" y="84" width="14" height="10" fill="#0f0f0f"/>
  
  <!-- 阴影效果 -->
  <ellipse cx="50" cy="94" rx="20" ry="3" fill="#000" opacity="0.4"/>
  
  <!-- 潜行效果 -->
  <rect x="16" y="70" width="4" height="4" fill="#2f2f2f" opacity="0.5"/>
  <rect x="80" y="68" width="4" height="4" fill="#2f2f2f" opacity="0.5"/>
</svg>