<svg xmlns="http://www.w3.org/2000/svg" viewBox="0 0 100 100" shape-rendering="crispEdges">
  <!-- 背景 -->
  <rect width="100" height="100" fill="#1a1a2e"/>
  
  <!-- 战士 - 重装近战坦克 -->
  <!-- 头盔顶部 -->
  <rect x="35" y="8" width="30" height="8" fill="#696969"/>
  <rect x="38" y="10" width="24" height="4" fill="#808080"/>
  
  <!-- 头盔护颊 -->
  <rect x="32" y="14" width="8" height="12" fill="#696969"/>
  <rect x="60" y="14" width="8" height="12" fill="#696969"/>
  
  <!-- 脸部 -->
  <rect x="40" y="16" width="20" height="16" fill="#fdbf60"/>
  <rect x="44" y="22" width="4" height="4" fill="#333"/>
  <rect x="52" y="22" width="4" height="4" fill="#333"/>
  <rect x="48" y="28" width="4" height="2" fill="#8b4513"/>
  
  <!-- 头盔装饰 -->
  <rect x="48" y="8" width="4" height="6" fill="#ff0000"/>
  
  <!-- 肩甲 -->
  <rect x="20" y="32" width="16" height="16" fill="#696969"/>
  <rect x="64" y="32" width="16" height="16" fill="#696969"/>
  <rect x="24" y="36" width="8" height="8" fill="#808080"/>
  <rect x="68" y="36" width="8" height="8" fill="#808080"/>
  
  <!-- 胸甲 -->
  <rect x="36" y="32" width="28" height="24" fill="#a9a9a9"/>
  <rect x="40" y="36" width="20" height="16" fill="#c0c0c0"/>
  
  <!-- 胸甲装饰十字 -->
  <rect x="48" y="38" width="4" height="12" fill="#ff0000"/>
  <rect x="44" y="42" width="12" height="4" fill="#ff0000"/>
  
  <!-- 手臂 -->
  <rect x="20" y="48" width="12" height="16" fill="#696969"/>
  <rect x="68" y="48" width="12" height="16" fill="#696969"/>
  
  <!-- 巨剑 - 右手持 -->
  <rect x="82" y="20" width="6" height="50" fill="#c0c0c0"/>
  <rect x="80" y="18" width="10" height="6" fill="#ffd700"/>
  <rect x="84" y="24" width="2" height="10" fill="#8b4513"/>
  <rect x="78" y="66" width="14" height="4" fill="#8b4513"/>
  
  <!-- 盾牌 - 左手持 -->
  <rect x="8" y="40" width="14" height="20" fill="#8b4513"/>
  <rect x="10" y="42" width="10" height="16" fill="#a0522d"/>
  <rect x="13" y="48" width="4" height="4" fill="#ffd700"/>
  
  <!-- 腿部 -->
  <rect x="38" y="56" width="10" height="24" fill="#4a4a6a"/>
  <rect x="52" y="56" width="10" height="24" fill="#4a4a6a"/>
  
  <!-- 靴子 -->
  <rect x="36" y="76" width="14" height="10" fill="#2f4f4f"/>
  <rect x="50" y="76" width="14" height="10" fill="#2f4f4f"/>
  <rect x="36" y="84" width="14" height="4" fill="#1a1a1a"/>
  <rect x="50" y="84" width="14" height="4" fill="#1a1a1a"/>
</svg>